<?xml version="1.0"?>
<svg xmlns="http://www.w3.org/2000/svg" width="228" height="228" viewBox="0 0 228 228" fill="none">
<circle opacity="0.2" cx="113.575" cy="113.575" r="113.575" fill="#249FC3"/>
<path d="M92.1526 163.012C89.6454 163.012 87.4516 162.072 85.5713 160.191C83.6909 158.311 82.7507 156.117 82.7507 153.61V142.641C82.7507 141.283 83.1947 140.16 84.0827 139.272C84.9706 138.384 86.0936 137.94 87.4516 137.94H102.181V118.04C98.2115 118.353 94.2418 117.805 90.2722 116.394C86.3025 114.984 82.7507 112.764 79.6168 109.735V100.646H71.782L55.6422 84.5067C54.3886 83.2531 53.7618 81.8428 53.7618 80.2759C53.7618 78.7089 54.3886 77.4553 55.6422 76.5151C58.9851 74.008 62.8764 71.9709 67.3161 70.404C71.7559 68.837 76.2217 68.0535 80.7137 68.0535C83.8476 68.0535 87.4255 68.5497 91.4474 69.5421C95.4693 70.5346 99.0472 72.1276 102.181 74.3214V67.4267C102.181 66.0687 102.625 64.9457 103.513 64.0578C104.401 63.1698 105.524 62.7258 106.882 62.7258H168.777C170.135 62.7258 171.258 63.1698 172.146 64.0578C173.034 64.9457 173.478 66.0687 173.478 67.4267V146.559C173.478 151.155 171.885 155.046 168.699 158.233C165.513 161.419 161.621 163.012 157.025 163.012H92.1526ZM111.583 137.94H145.273C146.631 137.94 147.754 138.384 148.642 139.272C149.53 140.16 149.974 141.283 149.974 142.641V146.559C149.974 148.648 150.627 150.345 151.932 151.651C153.238 152.957 154.936 153.61 157.025 153.61C159.114 153.61 160.812 152.957 162.118 151.651C163.423 150.345 164.076 148.648 164.076 146.559V72.1276H111.583V81.0594L147.31 116.786C147.937 117.413 148.433 118.04 148.798 118.667C149.164 119.293 149.347 120.025 149.347 120.86C149.347 122.218 148.903 123.341 148.015 124.229C147.127 125.117 146.004 125.561 144.646 125.561C143.81 125.561 143.079 125.378 142.452 125.013C141.825 124.647 141.199 124.151 140.572 123.524L122.865 105.817L120.201 108.951C118.843 110.518 117.485 111.72 116.127 112.555C114.769 113.391 113.254 114.175 111.583 114.906V137.94ZM76.0128 91.2446H89.0186V105.191C90.7945 106.34 92.5443 107.202 94.268 107.776C95.9916 108.351 97.7414 108.638 99.5173 108.638C102.129 108.638 104.793 107.933 107.509 106.523C110.225 105.112 112.21 103.676 113.463 102.213L116.127 99.0795L105.315 88.2674C101.972 84.9245 98.2115 82.2868 94.0329 80.3542C89.8543 78.4216 85.4146 77.4553 80.7137 77.4553C77.8931 77.4553 75.3338 77.7948 73.0355 78.4739C70.7373 79.1529 68.3869 80.0669 65.9842 81.2161L76.0128 91.2446ZM92.1526 153.61H142.766C142.139 152.983 141.617 152.121 141.199 151.024C140.781 149.928 140.572 148.7 140.572 147.342H92.1526V153.61Z" fill="#249FC3"/>
</svg>
