<?xml version="1.0" encoding="UTF-8"?>
<svg version="1.1" xmlns="http://www.w3.org/2000/svg" width="750" height="200">
<path d="M0 0 C4.39706117 1.96108928 6.60547974 5.53774013 8.38476562 9.90991211 C9.57927278 13.96791838 9.52954212 18.04763378 9.5 22.25 C9.49355469 23.21583008 9.48710937 24.18166016 9.48046875 25.17675781 C8.85672705 50.21670406 -4.18123389 77.6768991 -19.91796875 96.859375 C-21.44126073 99.87296347 -20.83692795 101.80127012 -20 105 C-19 107 -19 107 -17 108 C-12.28364338 108.73982065 -9.67124484 108.02199515 -5.8125 105.4375 C-5.17957031 104.96183594 -4.54664063 104.48617187 -3.89453125 103.99609375 C-2 103 -2 103 0.11328125 103.16015625 C2 104 2 104 4 107 C4.43382954 110.99579843 4.06949349 114.64091176 1.54296875 117.8515625 C-5.13347843 123.75709095 -11.56799605 124.62586246 -20.32421875 124.3828125 C-27.73451208 123.61107101 -32.14893413 119.3058533 -37 114 C-37.70125 114.47050781 -38.4025 114.94101563 -39.125 115.42578125 C-40.07375 116.04839844 -41.0225 116.67101562 -42 117.3125 C-42.928125 117.92738281 -43.85625 118.54226562 -44.8125 119.17578125 C-51.67981305 123.10597144 -57.53328774 124.53659001 -65.4375 124.4375 C-66.69373169 124.42722778 -66.69373169 124.42722778 -67.9753418 124.41674805 C-74.03698002 124.2587727 -78.92121313 123.52052271 -84 120 C-84.5671875 119.63777344 -85.134375 119.27554688 -85.71875 118.90234375 C-90.48701901 115.45469826 -93.19253825 110.59625823 -94.46484375 104.9296875 C-94.70647179 103.29456079 -94.86273551 101.64717392 -95 100 C-96.485 100.2784375 -96.485 100.2784375 -98 100.5625 C-102.17087678 101.17661683 -105.85034269 100.65520905 -110 100 C-110.49628906 100.68964844 -110.99257813 101.37929687 -111.50390625 102.08984375 C-113.65737627 105.06874251 -115.82645214 108.03572383 -118 111 C-118.62003906 111.8559375 -119.24007812 112.711875 -119.87890625 113.59375 C-125.97608633 121.77788434 -125.97608633 121.77788434 -131 124 C-136.1673599 124.72510959 -140.42563189 124.9183814 -145 122.25 C-146.79487081 120.23077034 -148.48288546 118.23574774 -150 116 C-150.45890625 116.40992187 -150.9178125 116.81984375 -151.390625 117.2421875 C-152.00421875 117.78101562 -152.6178125 118.31984375 -153.25 118.875 C-154.15492188 119.67550781 -154.15492188 119.67550781 -155.078125 120.4921875 C-159.9167299 124.28832874 -164.02559997 124.47577033 -170.07421875 124.39453125 C-174.47825929 123.80066196 -176.0996301 122.29231178 -179 119 C-179.33 118.34 -179.66 117.68 -180 117 C-183.44164469 118.52961986 -186.09151758 120.62729066 -189 123 C-193.80686041 125.40343021 -201.20350209 124.79762655 -206.2734375 123.3515625 C-210.77252987 121.05289958 -213.31069821 117.63165712 -215 113 C-215.55807013 110.29950811 -215.8061427 107.76246658 -216 105 C-216.94101563 105.04640625 -217.88203125 105.0928125 -218.8515625 105.140625 C-230.29498917 105.47231853 -230.29498917 105.47231853 -233.75 103.25 C-236.8836256 100.1163744 -237.92504395 98.24127217 -238.1953125 93.765625 C-238.17210937 92.60546875 -238.14890625 91.4453125 -238.125 90.25 C-238.10695312 89.07953125 -238.08890625 87.9090625 -238.0703125 86.703125 C-238.04710937 85.81109375 -238.02390625 84.9190625 -238 84 C-238.99 84 -239.98 84 -241 84 C-241.26296875 84.53496094 -241.5259375 85.06992188 -241.796875 85.62109375 C-242.67482993 87.35705008 -243.58577415 89.07643549 -244.515625 90.78515625 C-248.62408381 98.54866287 -251.56459064 106.23103085 -253.95800781 114.68969727 C-254.18327148 115.46627686 -254.40853516 116.24285645 -254.640625 117.04296875 C-254.83172852 117.73414795 -255.02283203 118.42532715 -255.21972656 119.13745117 C-256.13587027 121.32432862 -257.18014009 122.49507719 -259 124 C-263.10154633 124.83843765 -266.81731316 124.69748198 -270.4375 122.5625 C-274.14395142 116.48391967 -274.3626675 109.02619123 -274.3125 102.0625 C-274.30831055 101.24982666 -274.30412109 100.43715332 -274.29980469 99.59985352 C-274.09725253 88.43685932 -273.35196354 73.58141302 -267 64 C-263.81913178 61.76707264 -261.06201232 61.7842378 -257.25 61.875 C-255.77273437 61.90207031 -255.77273437 61.90207031 -254.265625 61.9296875 C-253.51796875 61.95289063 -252.7703125 61.97609375 -252 62 C-250.36792113 67.03994167 -251.72383458 71.33607902 -252.9375 76.3125 C-253.13279297 77.14845703 -253.32808594 77.98441406 -253.52929688 78.84570312 C-254.0104231 80.89929066 -254.50398755 82.94995711 -255 85 C-254.56312866 84.1174353 -254.56312866 84.1174353 -254.11743164 83.21704102 C-249.78386688 74.62312377 -243.27107017 65.45700922 -234 62 C-223.80730897 60.87043189 -223.80730897 60.87043189 -220.15625 63.15234375 C-218.48435301 65.82398995 -218.67474424 67.86936055 -218.75 71 C-218.77578125 72.14855469 -218.8015625 73.29710938 -218.828125 74.48046875 C-219.06538003 79.33880479 -219.45756714 84.16653578 -220 89 C-217.10949479 88.73920313 -217.10949479 88.73920313 -214 87 C-212.52942299 84.61086438 -211.42330284 82.14463452 -210.2578125 79.59375 C-206.35817273 71.5522568 -199.65669037 67.25505242 -192 63 C-188.57767028 61.85922343 -185.91326783 61.90184883 -182.3125 61.9375 C-180.54326172 61.95103516 -180.54326172 61.95103516 -178.73828125 61.96484375 C-177.83464844 61.97644531 -176.93101562 61.98804688 -176 62 C-175.505 63.98 -175.505 63.98 -175 66 C-174.39671875 65.96519531 -173.7934375 65.93039063 -173.171875 65.89453125 C-171.97304687 65.85392578 -171.97304687 65.85392578 -170.75 65.8125 C-169.96109375 65.77769531 -169.1721875 65.74289063 -168.359375 65.70703125 C-165.35888315 66.07960888 -164.06662251 66.79560265 -162 69 C-161.72265625 71.35546875 -161.72265625 71.35546875 -162.0625 74.1875 C-162.248125 75.78464844 -162.248125 75.78464844 -162.4375 77.4140625 C-163.15784932 82.00628941 -164.05590616 86.55435209 -164.97607422 91.11010742 C-166.07777184 96.79671017 -166.33003572 102.23048666 -166 108 C-161.10793502 107.25679814 -159.33797553 105.68033199 -156 102 C-155.29633301 101.42958984 -154.59266602 100.85917969 -153.86767578 100.27148438 C-151.26405341 97.10493503 -151.57062341 95.02447306 -151.6796875 90.96875 C-151.69009064 90.29581909 -151.70049377 89.62288818 -151.71121216 88.92956543 C-151.74673551 86.78548387 -151.80902874 84.6433437 -151.875 82.5 C-151.93037243 80.35684604 -151.97979938 78.21397665 -152.0173645 76.07043457 C-152.05296341 74.12544757 -152.10778082 72.18084061 -152.16357422 70.23632812 C-152.00731026 67.144634 -151.74077046 65.5190775 -150 63 C-147.39820337 61.69910169 -145.4030812 61.83159922 -142.5 61.8125 C-141.5203125 61.79832031 -140.540625 61.78414062 -139.53125 61.76953125 C-137 62 -137 62 -135 64 C-133.86055035 67.2850773 -133.81815126 70.5254819 -133.71875 73.98046875 C-133.66267578 75.7274707 -133.66267578 75.7274707 -133.60546875 77.50976562 C-133.57066406 78.72341797 -133.53585938 79.93707031 -133.5 81.1875 C-133.27683313 88.84542993 -132.97984425 96.39804167 -132 104 C-125.72239274 95.94280318 -123.04700195 90.15983099 -123.85742188 79.91430664 C-124.29169794 74.09761846 -123.07386974 70.67347664 -119.52734375 66.1015625 C-116.082588 62.90225618 -113.5718872 61.57155286 -108.8125 61.375 C-105.45485234 61.58421513 -104.23997797 61.83025949 -101.4375 63.8125 C-98.38327433 68.46023472 -98.46796604 73.09000555 -99.44921875 78.45703125 C-99.93549777 80.64701123 -100.44781707 82.82577973 -101 85 C-97.66042692 85.30142916 -97.66042692 85.30142916 -94 84 C-92.42729181 81.64543116 -91.37106783 79.22477758 -90.2265625 76.63671875 C-87.171018 70.06827118 -82.5518998 65.88795264 -75.984375 62.8828125 C-69.07720328 60.83959155 -60.31689036 60.28554406 -53.75 63.6875 C-49.97029644 66.86588709 -47.70344312 70.07589818 -47 75 C-46.45135839 83.22962408 -48.0516783 89.20828133 -53.51293945 95.56396484 C-55.98165876 97.94797518 -58.91466008 99.34577478 -62 100.75 C-62.60328125 101.04003906 -63.2065625 101.33007812 -63.828125 101.62890625 C-67.1683814 103.21915875 -70.54970937 104.66693317 -74 106 C-70.52418698 109.19774797 -67.69009315 109.84870667 -63 110 C-55.29910394 108.78338785 -48.78677577 105.17471294 -43 100 C-41.23949307 97.10484214 -40.77948123 95.10994021 -40.9453125 91.74609375 C-40.97278564 90.90522217 -41.00025879 90.06435059 -41.02856445 89.19799805 C-41.07630005 87.83155151 -41.07630005 87.83155151 -41.125 86.4375 C-41.54682225 60.7149953 -36.77672847 29.2308643 -21 8 C-14.34055677 1.17873852 -9.65778589 -1.18676183 0 0 Z M-9 14 C-18.39243287 31.05265477 -23.28395262 53.01216939 -23.0625 72.5 C-23.05347656 73.5415625 -23.04445313 74.583125 -23.03515625 75.65625 C-23.02355469 76.4296875 -23.01195312 77.203125 -23 78 C-9.405046 61.66072299 -3.96248047 36.6538772 -5 16 C-5.33 15.34 -5.66 14.68 -6 14 C-6.99 14 -7.98 14 -9 14 Z M-190.03125 79.859375 C-195.93350316 86.27690423 -198.12167164 92.99805259 -198.375 101.5625 C-198.42398438 102.69816406 -198.47296875 103.83382812 -198.5234375 105.00390625 C-198.30687386 108.18681424 -198.30687386 108.18681424 -195.60546875 109.92578125 C-193.13911939 111.21719798 -193.13911939 111.21719798 -190.9375 110.625 C-184.68340775 105.37963231 -183.69973225 97.33602031 -182.25 89.75 C-182.02957031 88.66203125 -181.80914062 87.5740625 -181.58203125 86.453125 C-180.40599868 80.76815226 -180.40599868 80.76815226 -180 75 C-185.12639904 75 -186.39188386 76.51876279 -190.03125 79.859375 Z M-72.6875 77.875 C-76.20453105 82.62774466 -78 88.06573262 -78 94 C-71.96899494 92.59276549 -67.8512136 90.83466249 -64.0234375 85.84375 C-62.51297702 83.12261508 -62.50689974 81.02904445 -63 78 C-63.33 77.34 -63.66 76.68 -64 76 C-67.79505259 75.55871481 -69.50996748 75.65811685 -72.6875 77.875 Z " fill="#359FB4" transform="translate(377,9)"/>
<path d="M0 0 C3.91125277 2.79375198 5.56336037 5.49106611 7 10 C8.24248212 24.12962221 6.07029223 35.68881204 -3 47 C-4.6462338 48.68685205 -6.30919288 50.35782862 -8 52 C-6.85660156 52.06058594 -5.71320312 52.12117188 -4.53515625 52.18359375 C-3.04425695 52.26798428 -1.55337225 52.35263302 -0.0625 52.4375 C0.69224609 52.47681641 1.44699219 52.51613281 2.22460938 52.55664062 C7.88671875 52.88671875 7.88671875 52.88671875 9 54 C9.43328524 57.81291008 9.29274175 59.54574556 7.1875 62.8125 C4.62634533 65.37365467 3.05010944 65.95313361 -0.54370117 66.11352539 C-1.53345947 66.10828857 -2.52321777 66.10305176 -3.54296875 66.09765625 C-4.61611328 66.09443359 -5.68925781 66.09121094 -6.79492188 66.08789062 C-7.91447266 66.07951172 -9.03402344 66.07113281 -10.1875 66.0625 C-11.31865234 66.05798828 -12.44980469 66.05347656 -13.61523438 66.04882812 C-16.41020927 66.03703498 -19.2050782 66.0205765 -22 66 C-22.29866529 81.49406163 -22.29866529 81.49406163 -18 96 C-14.50972374 99.26749267 -11.93919962 99.50809784 -7.3203125 99.36328125 C-2.71577571 98.64236892 0.72069615 96.27930385 4 93 C4 90.87625378 3.99452333 88.7523215 3.95703125 86.62890625 C4.09725099 78.05000785 6.28412922 71.12428186 11 64 C11.598125 63.0925 12.19625 62.185 12.8125 61.25 C18.80799165 55.08320859 25.19531774 52.74900175 33.6875 52.625 C39.31289291 52.60490483 43.83785321 52.82331235 48.390625 56.37890625 C54.09093064 62.12071897 58 67.65702488 58 76 C60.64 75.67 63.28 75.34 66 75 C66.36351562 73.48019531 66.36351562 73.48019531 66.734375 71.9296875 C67.07230396 70.57797167 67.41088024 69.22641757 67.75 67.875 C67.90726563 67.20984375 68.06453125 66.5446875 68.2265625 65.859375 C69.39843732 61.26201995 71.0566573 57.81243995 74 54 C76.62329684 52.68835158 78.63698625 52.86737154 81.5625 52.875 C82.55378906 52.87242188 83.54507813 52.86984375 84.56640625 52.8671875 C87 53 87 53 88 54 C87.83228386 61.10858421 86.54626866 68.07932182 85 75 C85.37511719 74.34773438 85.75023437 73.69546875 86.13671875 73.0234375 C91.31011185 64.18827245 96.22770327 57.01091445 106 53 C109.75817249 52.39574482 113.26541025 52.19839921 117 53 C118.95328156 54.57045577 119.88005484 55.76010969 121 58 C121.2653113 65.0307494 120.59773055 71.99801355 120 79 C122.49092811 80.24546405 123.41080733 79.7767578 126 79 C126.14695312 77.89205078 126.14695312 77.89205078 126.296875 76.76171875 C128.89543073 59.13186218 128.89543073 59.13186218 133.77734375 54.20703125 C136.58149375 52.68421517 138.51342076 52.66524488 141.6875 52.75 C142.66074219 52.76546875 143.63398437 52.7809375 144.63671875 52.796875 C147 53 147 53 148 54 C148.60922028 61.75667965 146.41906874 69.22220366 144.77734375 76.75195312 C143.53718623 82.63738637 142.70761174 87.98411163 143 94 C144.89030248 94.0461038 144.89030248 94.0461038 147 93 C148.5215789 90.6223439 149.74154412 88.41042647 150.9375 85.875 C151.28449951 85.16158447 151.63149902 84.44816895 151.98901367 83.71313477 C154.81044691 77.75604682 156.96738508 71.69861553 158.89453125 65.40234375 C162.07376649 55.61748901 162.07376649 55.61748901 166 53 C168.69921875 52.8046875 168.69921875 52.8046875 171.6875 52.875 C172.68136719 52.89304688 173.67523437 52.91109375 174.69921875 52.9296875 C175.45847656 52.95289063 176.21773437 52.97609375 177 53 C177.84972669 56.50409646 178.02935684 59.22248611 177.45849609 62.77661133 C177.31439301 63.69980667 177.17028992 64.62300201 177.02182007 65.57417297 C176.85735382 66.5667662 176.69288757 67.55935944 176.5234375 68.58203125 C176.35631256 69.62783859 176.18918762 70.67364594 176.01699829 71.75114441 C175.65957609 73.97515634 175.29783708 76.19847814 174.93212891 78.42114258 C174.38807423 81.73291448 173.85884429 85.04677541 173.33203125 88.36132812 C171.5700466 99.31464543 169.63547157 110.21752589 167.38671875 121.08203125 C167.18674286 122.05106888 166.98676697 123.02010651 166.7807312 124.01850891 C165.04475576 132.20664152 162.77922269 140.10406269 160 148 C159.67257812 148.96164063 159.34515625 149.92328125 159.0078125 150.9140625 C155.82907024 159.60963016 150.63080415 166.66028475 143 172 C136.7173692 174.09421027 129.40520316 174.07819452 123.375 171.375 C119.36880319 167.36880319 117.83857915 163.93204658 117.5625 158.3125 C118.15486342 141.87441503 130.20784518 131.18492962 141.3125 120.54296875 C144.19429835 117.90799109 147.28682463 115.60704525 150.5234375 113.4296875 C151.01070312 112.95789063 151.49796875 112.48609375 152 112 C152 110.68 152 109.36 152 108 C150.8553125 109.175625 150.8553125 109.175625 149.6875 110.375 C146.15932405 113.82112534 144.07367908 115.30990393 139.1875 115.4375 C135.68590656 115.35583018 133.37237786 115.08373837 130.5625 112.9375 C125.55524015 107.19747041 124.6138587 102.33668473 125 95 C124.01 95.495 124.01 95.495 123 96 C109.52476415 97.20931604 109.52476415 97.20931604 105.25 93.875 C100.61870891 87.95723916 100.88519278 83.39657463 101.7109375 76.1953125 C101.80632812 75.47085938 101.90171875 74.74640625 102 74 C91.58194117 83.22742353 87.89951944 97.76962903 83.89453125 110.63671875 C83 113 83 113 81 115 C77.61653361 115.55998137 74.38504817 115.54138896 71 115 C67.90492066 112.28236936 66.71164304 109.97445923 66 106 C65.93101758 103.40626086 65.90565248 100.84189803 65.9375 98.25 C65.94201172 97.55261719 65.94652344 96.85523437 65.95117188 96.13671875 C65.9628998 94.42444197 65.98083347 92.71220967 66 91 C63.03 91 60.06 91 57 91 C56.95875 91.78375 56.9175 92.5675 56.875 93.375 C54.96896183 101.27144384 50.62310837 107.2037847 44.02734375 111.84375 C36.99407249 115.85501839 29.87587265 115.69321042 22 115 C18.23215804 113.87353178 15.156057 112.35184085 12.546875 109.30078125 C11.08830203 107.76478199 11.08830203 107.76478199 9.06640625 108.15625 C6.82952471 109.06960806 4.95094094 110.16546496 2.9375 111.5 C-4.22714034 116.23058786 -12.67159641 115.738012 -21 115 C-26.39364177 113.69862713 -30.27719926 110.49959767 -33.68359375 106.18359375 C-40.44432917 94.96919879 -40.51100364 81.66988445 -40 69 C-39.67 68.01 -39.34 67.02 -39 66 C-39.69867187 66.02320312 -40.39734375 66.04640625 -41.1171875 66.0703125 C-42.48230469 66.09738281 -42.48230469 66.09738281 -43.875 66.125 C-44.77992188 66.14820312 -45.68484375 66.17140625 -46.6171875 66.1953125 C-49 66 -49 66 -51 64 C-51.46376812 56.69565217 -51.46376812 56.69565217 -49 53 C-46.3984375 52.70703125 -46.3984375 52.70703125 -43.375 52.8125 C-41.87066406 52.85310547 -41.87066406 52.85310547 -40.3359375 52.89453125 C-39.56507813 52.92933594 -38.79421875 52.96414062 -38 53 C-37.84144531 52.01902344 -37.68289063 51.03804687 -37.51953125 50.02734375 C-34.64057733 33.04427366 -30.14760394 14.30705789 -16.453125 2.6875 C-11.46097258 -0.73569023 -5.86577373 -1.05166886 0 0 Z M-10 14 C-16.01470107 24.47642605 -19.15563596 35.96781241 -20 48 C-12.88814507 43.12329948 -8.64009585 35.39572876 -7 27 C-6.77719442 22.984656 -6.81652522 19.01605905 -7 15 C-7.99 14.67 -8.98 14.34 -10 14 Z M27.5 69.9375 C22.92093597 75.54685344 21.33176875 81.7831025 22 89 C22.97402405 93.7889516 23.88639906 97.14333268 28 100 C31.84278709 100.65409142 33.44864639 100.35086139 36.75 98.25 C38.8710007 96.1289993 40.13635531 94.85002749 41 92 C40.83021374 88.68916784 40.26367728 87.29862246 38.0546875 84.796875 C35.58703407 81.43786387 35.012197 78.76525394 34.25 74.6875 C34.00765625 73.43324219 33.7653125 72.17898437 33.515625 70.88671875 C33.34546875 69.93410156 33.1753125 68.98148437 33 68 C29.86805832 67.69371417 29.86805832 67.69371417 27.5 69.9375 Z M143.25 135.4375 C137.46768971 141.28598837 132.40679163 147.45737582 132 156 C132.33 156.99 132.66 157.98 133 159 C136.36932209 158.71922316 137.68731862 158.3418812 140.0078125 155.8046875 C145.21361406 148.47573551 147.69428663 139.80869316 149 131 C146.8252078 131 144.65629484 134.07073119 143.25 135.4375 Z " fill="#359FB4" transform="translate(552,18)"/>
<path d="M0 0 C1.44536133 -0.01740234 1.44536133 -0.01740234 2.91992188 -0.03515625 C13.26145844 0.00668409 22.5547441 2.42511462 30.4375 9.375 C36.2202609 16.53789476 37.14833331 23.33369908 36.4375 32.375 C35.3988855 36.82313519 34.36813444 39.75457704 30.4375 42.375 C28.0625 42.67578125 28.0625 42.67578125 25.4375 42.6875 C24.57125 42.70425781 23.705 42.72101562 22.8125 42.73828125 C20.4375 42.375 20.4375 42.375 18.65234375 41.3828125 C16.38068705 37.62837024 17.00166473 32.91020761 16.99804688 28.62304688 C16.88897313 23.98576818 16.88897313 23.98576818 14.71484375 19.96484375 C9.68898141 16.45622287 5.16081819 15.98746113 -0.875 16 C-1.63248535 16.00088623 -2.3899707 16.00177246 -3.17041016 16.00268555 C-9.71395923 16.14174479 -14.15635624 17.35184369 -19.1953125 21.82421875 C-21.78957513 24.76685379 -22.09005974 28.37518862 -22.02758789 32.19995117 C-21.09644244 36.55458361 -17.78583574 39.47843871 -14.5625 42.375 C-11.54671872 44.24282356 -8.41557555 45.56539424 -5.125 46.875 C-3.34934532 47.63327736 -1.57461681 48.39372688 0.19921875 49.15625 C1.07884277 49.5275 1.9584668 49.89875 2.86474609 50.28125 C26.09727724 60.158052 26.09727724 60.158052 30.609375 71.2578125 C32.72185997 79.20952478 32.30137713 87.6138125 28.81640625 95.09375 C23.21254898 104.36472067 14.92981386 108.33271584 4.8984375 111.48828125 C-0.81455827 112.85249827 -6.59528695 112.70419204 -12.4375 112.6875 C-14.11779297 112.71166992 -14.11779297 112.71166992 -15.83203125 112.73632812 C-26.93288014 112.7428047 -36.72130605 110.38211648 -45.5625 103.375 C-51.68966813 96.08142143 -52.25829716 88.65643714 -51.5625 79.375 C-50.10446614 75.21960351 -48.5649039 72.37620195 -44.5625 70.375 C-40.90048751 69.97550773 -38.33331263 70.08930636 -34.875 71.37109375 C-32.5625 73.375 -32.5625 73.375 -31.99609375 77.24609375 C-31.97353623 78.76806257 -31.97572048 80.29055768 -32 81.8125 C-32.19453887 87.6275152 -32.19453887 87.6275152 -29.91015625 92.78515625 C-21.93221857 98.18785282 -10.81127144 97.37272042 -1.5625 96.375 C3.01531043 95.07812594 7.01262171 93.59707707 9.65234375 89.48046875 C10.50441635 87.19555765 10.80324935 85.37280137 10.875 82.9375 C10.91496094 82.19628906 10.95492187 81.45507812 10.99609375 80.69140625 C10.14361875 77.15631763 8.17538836 75.69397648 5.4375 73.375 C2.50998483 71.57276741 2.50998483 71.57276741 -0.75 70.0625 C-1.34441895 69.7725415 -1.93883789 69.48258301 -2.55126953 69.18383789 C-6.84091017 67.117051 -11.19857035 65.22179803 -15.57055664 63.3371582 C-26.25122031 58.71346089 -36.71690288 53.87806212 -41.375 42.3671875 C-43.70980451 34.0980882 -42.96395769 26.21050075 -39.5625 18.375 C-34.42354604 9.51030442 -27.13675905 4.65567586 -17.45703125 1.734375 C-11.58581771 0.20468372 -6.04304832 -0.0730523 0 0 Z " fill="#359FB4" transform="translate(467.5625,20.625)"/>
<path d="M0 0 C1.29535172 -0.00191345 2.59070343 -0.0038269 3.92530823 -0.00579834 C6.63702285 -0.00871286 9.34860388 -0.00456763 12.06030273 0.00488281 C15.51873183 0.01635593 18.97685303 0.00964545 22.43527126 -0.00226212 C25.76937184 -0.01125032 29.10339071 -0.00495063 32.4375 0 C33.669879 -0.00404846 34.902258 -0.00809692 36.17198181 -0.01226807 C49.61369293 0.06106708 49.61369293 0.06106708 54.66796875 3.609375 C56.08238017 5.7666068 56.15457608 7.19864227 56.12890625 9.765625 C56.14050781 10.92578125 56.14050781 10.92578125 56.15234375 12.109375 C55.6527594 14.81300795 54.8839573 15.56570361 52.75390625 17.265625 C50.79866028 17.62638855 50.79866028 17.62638855 48.55786133 17.60620117 C47.71721634 17.60597458 46.87657135 17.60574799 46.01045227 17.60551453 C45.1072374 17.59003067 44.20402252 17.57454681 43.2734375 17.55859375 C42.34544846 17.55434891 41.41745941 17.55010406 40.46134949 17.54573059 C37.49607382 17.52893162 34.53147665 17.49127716 31.56640625 17.453125 C29.55665044 17.43807974 27.54688398 17.42439106 25.53710938 17.41210938 C20.60911339 17.37902408 15.68162487 17.32723333 10.75390625 17.265625 C6.79138843 37.88016982 2.83786577 58.48854843 -0.18359375 79.265625 C-0.2847348 79.95565613 -0.38587585 80.64568726 -0.49008179 81.35662842 C-1.54330849 88.59002382 -2.46574524 95.79343333 -2.96557617 103.08764648 C-3.34793498 106.05633488 -4.33211095 107.98356859 -6.24609375 110.265625 C-9.54995733 112.46820072 -10.81427252 112.58812403 -14.68359375 112.640625 C-15.63105469 112.66898437 -16.57851563 112.69734375 -17.5546875 112.7265625 C-21.04877305 112.12815598 -22.04791652 111.00702048 -24.24609375 108.265625 C-25.65214204 100.28967879 -23.76907867 91.58783031 -22.453125 83.6875 C-22.26521896 82.51842102 -22.07731293 81.34934204 -21.88371277 80.14483643 C-21.48548182 77.68013715 -21.08268585 75.21617152 -20.67553711 72.75292969 C-20.0673692 69.06878469 -19.47484652 65.38239263 -18.88476562 61.6953125 C-16.41885913 46.45765814 -13.54865044 31.34398591 -10.24609375 16.265625 C-10.86987915 16.34770203 -11.49366455 16.42977905 -12.13635254 16.51434326 C-12.96985229 16.62401428 -13.80335205 16.7336853 -14.66210938 16.84667969 C-15.53134033 16.9615271 -16.40057129 17.07637451 -17.29614258 17.19470215 C-19.09301208 17.43007683 -20.89095328 17.65730801 -22.68945312 17.87988281 C-29.39176735 18.8260598 -35.60861677 20.38837739 -40.30859375 25.515625 C-41.66056018 29.48139319 -41.05391317 32.1592096 -40.24609375 36.265625 C-39.91609375 36.925625 -39.58609375 37.585625 -39.24609375 38.265625 C-38.87109375 41.140625 -38.87109375 41.140625 -39.24609375 44.265625 C-41.34814583 46.76181185 -42.98198749 47.96998724 -46.18359375 48.71875 C-48.40539532 48.90390013 -50.0896994 48.84182754 -52.24609375 48.265625 C-56.73971034 44.16275768 -58.88684617 40.01847914 -59.46484375 33.98046875 C-59.75365687 26.19454832 -58.56819702 19.39551017 -53.18359375 13.515625 C-39.22981631 0.87824166 -17.8126117 -0.05919646 0 0 Z " fill="#359FB4" transform="translate(73.24609375,20.734375)"/>
</svg>
